<?xml version="1.0" encoding="utf-8"?>
<!-- Generator: Adobe Illustrator 25.2.1, SVG Export Plug-In . SVG Version: 6.00 Build 0)  -->
<svg version="1.1" xmlns="http://www.w3.org/2000/svg" xmlns:xlink="http://www.w3.org/1999/xlink" x="0px" y="0px"
	 viewBox="0 0 442 450" enable-background="new 0 0 442 450" xml:space="preserve">
<g id="Layer_1">
	<g>
		<path fill="#080456" d="M221.41,444.1c-8.17,0-16.39-0.46-24.63-1.4C139.7,436.24,88.56,407.93,52.77,363
			C16.98,318.06,0.83,261.88,7.29,204.8S42.07,96.57,87,60.78c44.94-35.79,101.13-51.94,158.2-45.47
			c57.08,6.47,108.23,34.78,144.02,79.71c35.79,44.94,51.94,101.12,45.47,158.2s-34.78,108.23-79.71,144.02
			C316.54,427.86,269.85,444.1,221.41,444.1z M220.84,26.11c-101.73,0-189.72,76.62-201.44,180.06C6.81,317.33,87,418,198.16,430.6
			c7.72,0.88,15.4,1.3,22.99,1.3c101.73,0,189.72-76.62,201.44-180.06c12.59-111.16-67.6-211.84-178.75-224.43
			C236.11,26.54,228.44,26.11,220.84,26.11z"/>
		<g>
			<polygon fill="#1B1464" points="115.99,150.17 112.84,150.17 112.84,164.37 115.99,166.23 			"/>
			<polygon fill="#1B1464" points="125.43,154.37 122.28,154.37 122.28,169.93 125.43,171.78 			"/>
			<polygon fill="#E6E6E6" points="231.45,233.1 248.24,233.1 248.24,200.56 285.55,176.01 285.55,132.33 207.31,132.33 
				207.31,216.3 231.45,216.3 			"/>
			<path fill="#07779E" d="M299.68,247.04v-10.8h9.45v8.47l7.35-1.81v-10.85h9.45v8.52l2.1-0.52v-91.97l-42.47,27.94v248.12h-3.72
				v1.46c2.12-0.78,4.22-1.61,6.3-2.47V249.89L299.68,247.04z"/>
			<polygon fill="#07779E" points="248.24,233.1 281.83,233.1 281.83,424.13 285.55,424.13 285.55,176.01 248.24,200.56 			"/>
			<path fill="#07779E" d="M104.54,397.74l3.66,2.44l1.22-7.31l-0.77-5.47h-9.45v-11.37h9.45v-8.4h-9.45v-11.37h9.45v-8.57h-9.45
				V336.3h9.45v-8.4h-9.45v-11.37h9.45v-8.4h-9.45v-11.37h9.45v-8.4h-9.45v-11.37h9.45v-8.4h-9.45v-11.37h9.45v-8.4h-9.45v-11.37
				h11.37v10.35h15.17v-10.35h11.37v10.35h12.64v-10.35h11.37v10.35h16.79v-45.14l-52.48-30.87v15.13h-3.15v-16.98l-6.3-3.7v16.49
				h-3.15v-18.34l-24.14-14.2l-1.22,232.94C92.62,388.54,98.76,392.99,104.54,397.74z M149.75,197.9h11.37v11.37h-11.37V197.9z
				 M149.75,217.67h11.37v11.37h-11.37V217.67z M125.73,197.9h11.37v11.37h-11.37V197.9z M125.73,217.67h11.37v11.37h-11.37V217.67z
				 M99.19,197.9h11.37v11.37H99.19V197.9z M99.19,217.67h11.37v11.37H99.19V217.67z"/>
			<path fill="#080456" d="M248.24,434.41v-10.28h-40.94V243.59h-14.7v191.15c8.73,1.3,17.67,1.98,26.77,1.98
				C229.2,436.73,238.84,435.93,248.24,434.41z"/>
			<polygon fill="#080456" points="231.45,233.1 231.45,243.59 207.31,243.59 207.31,424.13 248.24,424.13 248.24,233.1 			"/>
			<path fill="#080456" d="M248.24,424.13v10.28c11.6-1.87,22.84-4.84,33.59-8.82v-1.46H248.24z"/>
			<rect x="248.24" y="233.1" fill="#080456" width="33.59" height="191.04"/>
			<rect x="192.61" y="216.3" fill="#080456" width="14.7" height="16.79"/>
			<rect x="207.31" y="216.3" fill="#080456" width="24.14" height="16.79"/>
			<rect x="192.61" y="233.1" fill="#080456" width="14.7" height="10.5"/>
			<rect x="207.31" y="233.1" fill="#080456" width="24.14" height="10.5"/>
			<path fill="#080456" d="M328.02,400.25c0.57-0.43,1.14-0.87,1.71-1.31h-1.71V400.25z"/>
			<path fill="#080456" d="M343.76,236.16v11.63h-9.45v-9.3l-6.3,1.55v17.19h6.3v9.45h-6.3v12.6h6.3v9.45h-6.3v12.6h6.3v9.45h-6.3
				v12.6h6.3v9.45h-6.3v12.6h6.3v9.45h-6.3v12.6h6.3v9.45h-6.3l-10.24,33.02l13.4-3.66l6.09-4.87c6.8-5.65,11.16-10.49,17.06-17.06
				l1.22-1.22l-10.74-15.66l11.96,19.32l-1.22-3.66c5.3-6,8.93-3.08,13.4-9.75V229.95L343.76,236.16z M354.26,354.86h-9.45v-9.45
				h9.45V354.86z M354.26,332.81h-9.45v-9.45h9.45V332.81z M354.26,310.77h-9.45v-9.45h9.45V310.77z M354.26,288.73h-9.45v-9.45
				h9.45V288.73z M344.81,266.68v-9.45h9.45v9.45H344.81z"/>
			<path fill="#080456" d="M324.87,398.94v-9.45h3.15v-12.6h-3.15v-9.45h3.15v-12.6h-3.15v-9.45h3.15v-12.6h-3.15v-9.45h3.15v-12.6
				h-3.15v-9.45h3.15v-12.6h-3.15v-9.45h3.15v-12.6h-3.15v-9.45h3.15v-17.19l-2.1,0.52v7.22h-9.45v-4.89l-7.35,1.81v7.28h-9.45
				v-4.95l-11.55,2.85v173.23c5.02-2.08,9.92-4.37,14.7-6.87v-4.71h8.43c5.81-3.45,11.4-7.22,16.77-11.29v-1.31H324.87z
				 M312.27,398.94h-9.45v-9.45h9.45V398.94z M312.27,376.9h-9.45v-9.45h9.45V376.9z M312.27,354.86h-9.45v-9.45h9.45V354.86z
				 M312.27,332.81h-9.45v-9.45h9.45V332.81z M312.27,310.77h-9.45v-9.45h9.45V310.77z M312.27,288.73h-9.45v-9.45h9.45V288.73z
				 M312.27,266.68h-9.45v-9.45h9.45V266.68z"/>
			<polygon fill="#080456" points="316.47,232.05 316.47,242.9 325.92,240.57 325.92,232.05 			"/>
			<polygon fill="#080456" points="316.47,247.79 325.92,247.79 325.92,240.57 316.47,242.9 			"/>
			<polygon fill="#080456" points="343.76,232.05 334.32,232.05 334.32,238.49 343.76,236.16 			"/>
			<polygon fill="#080456" points="343.76,247.79 343.76,236.16 334.32,238.49 334.32,247.79 			"/>
			<rect x="328.02" y="257.24" fill="#B3B3B3" width="6.3" height="9.45"/>
			<rect x="324.87" y="257.24" fill="#B3B3B3" width="3.15" height="9.45"/>
			<rect x="302.83" y="257.24" fill="#B3B3B3" width="9.45" height="9.45"/>
			<rect x="344.81" y="257.24" fill="#B3B3B3" width="9.45" height="9.45"/>
			<rect x="125.73" y="197.9" fill="#CCCCCC" width="11.37" height="11.37"/>
			<rect x="99.19" y="197.9" fill="#CCCCCC" width="11.37" height="11.37"/>
			<rect x="149.75" y="197.9" fill="#CCCCCC" width="11.37" height="11.37"/>
			<rect x="125.73" y="217.67" fill="#CCCCCC" width="11.37" height="11.37"/>
			<rect x="99.19" y="217.67" fill="#CCCCCC" width="11.37" height="11.37"/>
			<rect x="149.75" y="217.67" fill="#CCCCCC" width="11.37" height="11.37"/>
			<rect x="125.73" y="237.44" fill="#CCCCCC" width="11.37" height="10.35"/>
			<polygon fill="#CCCCCC" points="110.57,247.79 110.57,237.44 99.19,237.44 99.19,248.82 108.64,248.82 108.64,247.79 			"/>
			<rect x="149.75" y="237.44" fill="#CCCCCC" width="11.37" height="10.35"/>
			<rect x="99.19" y="257.22" fill="#CCCCCC" width="9.45" height="11.37"/>
			<rect x="99.19" y="276.99" fill="#CCCCCC" width="9.45" height="11.37"/>
			<rect x="99.19" y="296.76" fill="#CCCCCC" width="9.45" height="11.37"/>
			<rect x="99.19" y="316.53" fill="#CCCCCC" width="9.45" height="11.37"/>
			<rect x="99.19" y="336.3" fill="#CCCCCC" width="9.45" height="11.37"/>
			<rect x="99.19" y="356.25" fill="#CCCCCC" width="9.45" height="11.37"/>
			<rect x="99.19" y="376.02" fill="#CCCCCC" width="9.45" height="11.37"/>
			<rect x="328.02" y="279.28" fill="#B3B3B3" width="6.3" height="9.45"/>
			<rect x="324.87" y="279.28" fill="#B3B3B3" width="3.15" height="9.45"/>
			<rect x="302.83" y="279.28" fill="#B3B3B3" width="9.45" height="9.45"/>
			<rect x="344.81" y="279.28" fill="#B3B3B3" width="9.45" height="9.45"/>
			<rect x="328.02" y="301.32" fill="#B3B3B3" width="6.3" height="9.45"/>
			<rect x="324.87" y="301.32" fill="#B3B3B3" width="3.15" height="9.45"/>
			<rect x="302.83" y="301.32" fill="#B3B3B3" width="9.45" height="9.45"/>
			<rect x="344.81" y="301.32" fill="#B3B3B3" width="9.45" height="9.45"/>
			<rect x="328.02" y="323.37" fill="#B3B3B3" width="6.3" height="9.45"/>
			<rect x="324.87" y="323.37" fill="#B3B3B3" width="3.15" height="9.45"/>
			<rect x="302.83" y="323.37" fill="#B3B3B3" width="9.45" height="9.45"/>
			<rect x="344.81" y="323.37" fill="#B3B3B3" width="9.45" height="9.45"/>
			<rect x="328.02" y="345.41" fill="#B3B3B3" width="6.3" height="9.45"/>
			<rect x="324.87" y="345.41" fill="#B3B3B3" width="3.15" height="9.45"/>
			<rect x="302.83" y="345.41" fill="#B3B3B3" width="9.45" height="9.45"/>
			<rect x="344.81" y="345.41" fill="#B3B3B3" width="9.45" height="9.45"/>
			<rect x="328.02" y="367.45" fill="#B3B3B3" width="6.3" height="9.45"/>
			<rect x="324.87" y="367.45" fill="#B3B3B3" width="3.15" height="9.45"/>
			<rect x="302.83" y="367.45" fill="#B3B3B3" width="9.45" height="9.45"/>
			<path fill="#B3B3B3" d="M354.26,376.9v-0.98c-0.29,0.33-0.58,0.66-0.87,0.98H354.26z"/>
			<path fill="#B3B3B3" d="M344.81,367.45v9.45h8.57c0.29-0.33,0.58-0.66,0.87-0.98v-8.46H344.81z"/>
			<path fill="#B3B3B3" d="M328.02,389.49v9.45h1.71c1.55-1.2,3.08-2.43,4.59-3.68v-5.76H328.02z"/>
			<rect x="324.87" y="389.49" fill="#B3B3B3" width="3.15" height="9.45"/>
			<rect x="302.83" y="389.49" fill="#B3B3B3" width="9.45" height="9.45"/>
			<path fill="#B3B3B3" d="M302.83,416.25c2.85-1.5,5.66-3.07,8.43-4.71h-8.43V416.25z"/>
			<polygon fill="#080456" points="299.68,236.24 299.68,247.04 309.12,244.71 309.12,236.24 			"/>
			<polygon fill="#080456" points="299.68,251.99 309.12,251.99 309.12,244.71 299.68,247.04 			"/>
			<path fill="#080456" d="M177.92,247.79v184.13c2.96,0.7,5.95,1.32,8.97,1.87V247.79H177.92z"/>
			<path fill="#080456" d="M161.12,248.82h-11.37v-1.03h-12.64v1.03h-11.37v-1.03h-15.17v1.03h-1.93v8.4h1.93v11.37h-1.93v8.4h1.93
				v11.37h-1.93v8.4h1.93v11.37h-1.93v8.4h1.93v11.37h-1.93v8.4h1.93v11.37h-1.93v8.57h1.93v11.37h-1.93v8.4h1.93v11.37h-1.93v8.4
				h1.93v4.33c19.68,14.95,42.52,25.95,67.35,31.8V247.79h-16.79V248.82z M137.11,407.17h-11.37v-11.37h11.37V407.17z M137.11,387.4
				h-11.37v-11.37h11.37V387.4z M137.11,367.62h-11.37v-11.37h11.37V367.62z M137.11,347.68h-11.37V336.3h11.37V347.68z
				 M137.11,327.91h-11.37v-11.37h11.37V327.91z M137.11,308.14h-11.37v-11.37h11.37V308.14z M137.11,288.36h-11.37v-11.37h11.37
				V288.36z M137.11,268.59h-11.37v-11.37h11.37V268.59z M161.12,407.17h-11.37v-11.37h11.37V407.17z M161.12,387.4h-11.37v-11.37
				h11.37V387.4z M161.12,367.62h-11.37v-11.37h11.37V367.62z M161.12,347.68h-11.37V336.3h11.37V347.68z M161.12,327.91h-11.37
				v-11.37h11.37V327.91z M161.12,308.14h-11.37v-11.37h11.37V308.14z M161.12,288.36h-11.37v-11.37h11.37V288.36z M161.12,268.59
				h-11.37v-11.37h11.37V268.59z"/>
			<rect x="125.73" y="247.79" fill="#080456" width="11.37" height="1.03"/>
			<rect x="108.64" y="247.79" fill="#080456" width="1.93" height="1.03"/>
			<rect x="149.75" y="247.79" fill="#080456" width="11.37" height="1.03"/>
			<rect x="125.73" y="257.22" fill="#080456" width="11.37" height="11.37"/>
			<rect x="108.64" y="257.22" fill="#080456" width="1.93" height="11.37"/>
			<rect x="149.75" y="257.22" fill="#080456" width="11.37" height="11.37"/>
			<rect x="125.73" y="276.99" fill="#080456" width="11.37" height="11.37"/>
			<rect x="108.64" y="276.99" fill="#080456" width="1.93" height="11.37"/>
			<rect x="149.75" y="276.99" fill="#080456" width="11.37" height="11.37"/>
			<rect x="125.73" y="296.76" fill="#080456" width="11.37" height="11.37"/>
			<rect x="108.64" y="296.76" fill="#080456" width="1.93" height="11.37"/>
			<rect x="149.75" y="296.76" fill="#080456" width="11.37" height="11.37"/>
			<rect x="125.73" y="316.53" fill="#080456" width="11.37" height="11.37"/>
			<rect x="108.64" y="316.53" fill="#080456" width="1.93" height="11.37"/>
			<rect x="149.75" y="316.53" fill="#080456" width="11.37" height="11.37"/>
			<rect x="125.73" y="336.3" fill="#080456" width="11.37" height="11.37"/>
			<rect x="108.64" y="336.3" fill="#080456" width="1.93" height="11.37"/>
			<rect x="149.75" y="336.3" fill="#080456" width="11.37" height="11.37"/>
			<rect x="125.73" y="356.25" fill="#080456" width="11.37" height="11.37"/>
			<rect x="108.64" y="356.25" fill="#080456" width="1.93" height="11.37"/>
			<rect x="149.75" y="356.25" fill="#080456" width="11.37" height="11.37"/>
			<rect x="125.73" y="376.02" fill="#080456" width="11.37" height="11.37"/>
			<rect x="108.64" y="376.02" fill="#080456" width="1.93" height="11.37"/>
			<rect x="149.75" y="376.02" fill="#080456" width="11.37" height="11.37"/>
			<rect x="125.73" y="395.79" fill="#080456" width="11.37" height="11.37"/>
			<polyline fill="#080456" points="108.64,395.79 110.57,395.79 110.57,400.12 108.19,400.17 			"/>
			<rect x="149.75" y="395.79" fill="#080456" width="11.37" height="11.37"/>
		</g>
	</g>
</g>
<g id="Layer_2">
</g>
</svg>
