<?xml version="1.0" encoding="utf-8"?>
<!-- Generator: Adobe Illustrator 25.2.1, SVG Export Plug-In . SVG Version: 6.00 Build 0)  -->
<svg version="1.1" xmlns="http://www.w3.org/2000/svg" xmlns:xlink="http://www.w3.org/1999/xlink" x="0px" y="0px"
	 viewBox="0 0 442 450" enable-background="new 0 0 442 450" xml:space="preserve">
<g id="Layer_1">
	<path fill="#E6E6E6" stroke="#080456" stroke-width="9.7799" stroke-miterlimit="10" d="M63.68,360.41
		c33.13,38.53,80.17,65.13,134.45,71.32c67.06,7.65,130.28-17.56,173.84-62.88V132.56H63.68V360.41z"/>
	
		<path fill="none" stroke="#080456" stroke-width="14.0598" stroke-linecap="square" stroke-linejoin="bevel" stroke-miterlimit="10" d="
		M334,289.55c0,0,30.65-154.53-115.57-154.53h6.09"/>
	
		<path fill="none" stroke="#080456" stroke-width="14.0598" stroke-linecap="square" stroke-linejoin="bevel" stroke-miterlimit="10" d="
		M110.52,289.53c0,0-30.65-154.53,115.57-154.53H220"/>
	
		<line fill="none" stroke="#080456" stroke-width="12.2249" stroke-miterlimit="10" x1="181.87" y1="234.36" x2="129.48" y2="412.2"/>
	<line fill="none" stroke="#080456" stroke-width="12.2249" stroke-miterlimit="10" x1="264.73" y1="234.36" x2="322" y2="407.29"/>
	<g>
		
			<line fill="none" stroke="#080456" stroke-width="12.2249" stroke-miterlimit="10" x1="226.96" y1="287.1" x2="226.96" y2="253.98"/>
		
			<line fill="none" stroke="#080456" stroke-width="12.2249" stroke-miterlimit="10" x1="226.96" y1="338.61" x2="226.96" y2="305.49"/>
		
			<line fill="none" stroke="#080456" stroke-width="12.2249" stroke-miterlimit="10" x1="226.96" y1="392.57" x2="226.96" y2="359.46"/>
		
			<line fill="none" stroke="#080456" stroke-width="12.2249" stroke-miterlimit="10" x1="226.96" y1="431.82" x2="226.96" y2="407.29"/>
	</g>
	<g>
		<path fill="#080456" d="M322.24,131.34h-90.65c-4.24,0-7.68-3.44-7.68-7.68V96.49c0-4.24,3.44-7.68,7.68-7.68h90.65
			c4.24,0,7.68,3.44,7.68,7.68v27.16C329.92,127.9,326.48,131.34,322.24,131.34z"/>
		<g>
			<path fill="#E6E6E6" d="M259.6,111.71h-16.54c-1.15,0-2.09-0.93-2.09-2.09V96.84c0-1.15,0.93-2.09,2.09-2.09h16.54
				c1.15,0,2.09,0.93,2.09,2.09v12.78C261.69,110.78,260.75,111.71,259.6,111.71z"/>
			<path fill="#E6E6E6" d="M285.19,111.71h-16.54c-1.15,0-2.09-0.93-2.09-2.09V96.84c0-1.15,0.93-2.09,2.09-2.09h16.54
				c1.15,0,2.09,0.93,2.09,2.09v12.78C287.28,110.78,286.34,111.71,285.19,111.71z"/>
			<path fill="#E6E6E6" d="M310.78,111.71h-16.54c-1.15,0-2.09-0.93-2.09-2.09V96.84c0-1.15,0.93-2.09,2.09-2.09h16.54
				c1.15,0,2.09,0.93,2.09,2.09v12.78C312.86,110.78,311.93,111.71,310.78,111.71z"/>
		</g>
	</g>
	<g>
		<path fill="#080456" d="M211.96,131.34h-90.65c-4.24,0-7.68-3.44-7.68-7.68V96.49c0-4.24,3.44-7.68,7.68-7.68h90.65
			c4.24,0,7.68,3.44,7.68,7.68v27.16C219.65,127.9,216.21,131.34,211.96,131.34z"/>
		<g>
			<path fill="#E6E6E6" d="M148.71,111.71h-16.54c-1.15,0-2.09-0.93-2.09-2.09V96.84c0-1.15,0.93-2.09,2.09-2.09h16.54
				c1.15,0,2.09,0.93,2.09,2.09v12.78C150.8,110.78,149.87,111.71,148.71,111.71z"/>
			<path fill="#E6E6E6" d="M174.3,111.71h-16.54c-1.15,0-2.09-0.93-2.09-2.09V96.84c0-1.15,0.93-2.09,2.09-2.09h16.54
				c1.15,0,2.09,0.93,2.09,2.09v12.78C176.39,110.78,175.46,111.71,174.3,111.71z"/>
			<path fill="#E6E6E6" d="M199.89,111.71h-16.54c-1.15,0-2.09-0.93-2.09-2.09V96.84c0-1.15,0.93-2.09,2.09-2.09h16.54
				c1.15,0,2.09,0.93,2.09,2.09v12.78C201.98,110.78,201.04,111.71,199.89,111.71z"/>
		</g>
	</g>
	<path fill="#080456" d="M149.74,294.39v16.36c0,0,0,3.74,5.57,3.74c8.36,0.47,26.01,2.8,26.01-3.74c0-6.54,0-12.15,0-12.15
		C176.68,299.07,160.89,301.4,149.74,294.39z"/>
	<path fill="#080456" d="M297.88,294.39v16.36c0,0,0,3.74-5.57,3.74c-8.36,0.47-26.01,2.8-26.01-3.74c0-6.54,0-12.15,0-12.15
		C270.95,299.07,286.74,301.4,297.88,294.39z"/>
	<path fill="#07779E" d="M135.58,297.43c0,0-18.58-40.67,5.57-63.1c-0.23-1.17-1.63-3.04-5.8-3.04c-2.79-0.47-13-6.54-2.32-13.56
		c3.25-0.47,17.18,0,17.18,0s16.25-39.73,26.47-42.54c20.9-0.47,47.37-0.93,47.37-0.93v130.41
		C224.05,304.68,156.24,305.14,135.58,297.43z"/>
	<path fill="#07779E" d="M311.12,297.43c0,0,18.58-40.67-5.57-63.1c0.23-1.17,1.63-3.04,5.8-3.04c2.79-0.47,13-6.54,2.32-13.56
		c-3.25-0.47-17.18,0-17.18,0S280.24,178,270.02,175.2c-20.9-0.47-47.37-0.93-47.37-0.93v130.41
		C222.65,304.68,290.45,305.14,311.12,297.43z"/>
	<g>
		<path fill="#E6E6E6" d="M193.4,275.83c-4.88,0.23-8.82-18.23-8.82-18.23h78.48c0,0-1.16,18-6.5,18.23
			C251.21,276.06,198.27,275.59,193.4,275.83z"/>
		<ellipse fill="#E6E6E6" cx="158.8" cy="266.75" rx="14.16" ry="14.26"/>
		<ellipse fill="#E6E6E6" cx="295.8" cy="266.75" rx="14.16" ry="14.26"/>
	</g>
	<g>
		<path fill="#E6E6E6" d="M165.63,217.36l13.02-28.13c0,0,0.68-4.92,7.16-5.1s38.51-1.07,38.51-1.07l1.1,39.99l-54.79-0.93
			C170.63,222.12,164.96,222.28,165.63,217.36z"/>
		<path fill="#E6E6E6" d="M283.34,216.1l-13.62-27.84c0,0-0.78-4.9-7.27-4.94c-6.49-0.04-38.53-0.24-38.53-0.24l-0.24,40l54.76-2.11
			C278.44,220.97,284.12,221,283.34,216.1z"/>
	</g>
	<path fill="#080456" d="M218.4,443.94c-8.16,0-16.37-0.46-24.6-1.4c-57.04-6.5-108.15-34.98-143.92-80.17
		C14.13,317.18-2,260.69,4.46,203.3c6.49-57.65,34.96-109.23,80.17-145.24C129.44,22.36,185.4,6.27,242.19,12.75
		c57.04,6.5,108.15,34.98,143.92,80.17c35.75,45.18,51.89,101.67,45.43,159.06c-6.49,57.65-34.96,109.23-80.17,145.24
		C313.04,427.75,266.57,443.94,218.4,443.94z M217.62,23.21c-45.5,0-89.4,15.29-125.6,44.13c-42.73,34.03-69.64,82.79-75.78,137.29
		c-12.61,112,67.65,213.44,178.9,226.13c53.64,6.12,106.5-9.08,148.83-42.8c42.73-34.03,69.64-82.79,75.78-137.29
		c12.61-112-67.65-213.44-178.9-226.13C233.08,23.64,225.33,23.21,217.62,23.21z"/>
</g>
<g id="Layer_2">
</g>
</svg>
