<?xml version="1.0" encoding="utf-8"?>
<!-- Generator: Adobe Illustrator 25.2.1, SVG Export Plug-In . SVG Version: 6.00 Build 0)  -->
<svg version="1.1" xmlns="http://www.w3.org/2000/svg" xmlns:xlink="http://www.w3.org/1999/xlink" x="0px" y="0px"
	 viewBox="0 0 442 450" enable-background="new 0 0 442 450" xml:space="preserve">
<g id="Layer_1">
	<g>
		<g>
			<g>
				<path fill="#FFFFFF" stroke="#E6E6E6" stroke-width="3.3606" stroke-miterlimit="10" d="M226.44,268.83
					c0.38-40.91,1.19-146.72-0.16-173.67c-15.27-20-30.23,0-30.23,0v173.58c-10,5.39-16.8,15.96-16.8,28.13
					c0,17.64,14.29,31.94,31.91,31.94s31.91-14.3,31.91-31.94C243.07,284.78,236.35,274.25,226.44,268.83z"/>
				<path fill="#B70F23" stroke="#E6E6E6" stroke-width="3.3606" stroke-miterlimit="10" d="M226.44,268.83
					c0.2-21.95,0.53-62.59,0.58-99.71h-30.97v99.62c-10,5.39-16.8,15.96-16.8,28.13c0,17.64,14.29,31.94,31.91,31.94
					s31.91-14.3,31.91-31.94C243.07,284.78,236.35,274.25,226.44,268.83z"/>
			</g>
			<polygon fill="#E6E6E6" points="307.3,152.07 279.66,124.58 251.88,151.27 271.86,151.56 270.65,235.4 286.12,235.63 
				287.33,151.78 			"/>
		</g>
		<g>
			<path fill="#080456" d="M411.69,302.49c2.31-3.83,3.64-6.1,3.64-6.1h-3.5c-0.55,1.74-1.13,3.47-1.74,5.19L411.69,302.49z"/>
			<path fill="#080456" d="M103.01,396.63l0.05,0.03c-0.03-0.02-0.05-0.04-0.08-0.06L103.01,396.63z"/>
			<path fill="#080456" d="M232,435.24c0,0,0.02,0,0.03,0C232.02,435.24,232.01,435.24,232,435.24L232,435.24z"/>
			<path fill="#080456" d="M156.69,425.02l1.18,0.16c-0.85-0.29-1.7-0.59-2.54-0.88L156.69,425.02z"/>
			<path fill="#080456" d="M356.79,382.64c-4.07,3.75-8.29,7.34-12.67,10.75C347.42,392.11,351.81,388.2,356.79,382.64z"/>
			<g>
				<path fill="#080456" d="M405.05,305.29c2.02-3.29,11.1-0.89,12.48-3.19c-0.06-0.92-2.99,3.39-3.69,3.98
					C412.74,309.24,406.31,302.21,405.05,305.29z"/>
			</g>
			<g>
				<path fill="#080456" d="M368.99,362.9c0.31-0.37,8.16-1.22,7.79-1.53c-0.26,0.3-7.94,9.66-8.2,9.97
					C366.58,369.74,368.6,363.35,368.99,362.9z"/>
			</g>
			<path fill="none" stroke="#080456" stroke-width="11.6569" stroke-miterlimit="10" d="M53.22,340.44l-2.14-0.33
				c13.52,22.01,31.18,41.2,51.9,56.49l-45.33-47.38L53.22,340.44z"/>
			<path fill="none" stroke="#080456" stroke-width="11.6569" stroke-miterlimit="10" d="M155.33,424.3l-52.27-27.64
				C118.87,408.31,136.45,417.68,155.33,424.3z"/>
			<path fill="none" stroke="#080456" stroke-width="11.6569" stroke-miterlimit="10" d="M221.43,435.52c3.54,0,7.07-0.1,10.57-0.28
				l-74.13-10.06C177.84,431.88,199.21,435.52,221.43,435.52z"/>
			<path fill="none" stroke="#080456" stroke-width="11.6569" stroke-miterlimit="10" d="M366.29,373.29l-1.77,0.06
				c-2.68,3.42-5.28,6.55-7.73,9.29C360.06,379.63,363.23,376.52,366.29,373.29z"/>
			<path fill="none" stroke="#080456" stroke-width="11.6569" stroke-miterlimit="10" d="M291.86,421.52
				c-28.64,10.66-59.23,13.66-59.83,13.71c42.15-2.2,80.83-17.48,112.09-41.85l0,0C335.94,396.56,314.88,412.95,291.86,421.52z"/>
			<path fill="#080456" d="M410.1,301.58c0.6-1.72,1.18-3.45,1.74-5.19h-10.85L410.1,301.58z"/>
			<polygon fill="#080456" points="31.04,296.4 32.77,299.84 37.23,296.4 			"/>
			<path fill="#080456" d="M235.37,377.67c0,0,1.14-2.46,3.06-6.44l-88.12,2.94c0,0,3.53-7.6,8.57-17.68L53.22,340.44l4.43,8.79
				l45.33,47.38c0.03,0.02,0.05,0.04,0.08,0.06l50.06,33.98c0.85,0.3,1.59-0.29,2.44,0l76.44,4.6c0.01,0,0.02,0,0.03,0
				c0.6-0.06,31.19-3.05,59.83-13.71c23.02-8.57,44.08-24.97,52.26-28.14l0,0c4.37-3.41,8.6-7,12.67-10.75
				c2.45-2.74,5.05-5.87,7.73-9.29L235.37,377.67z"/>
			<path fill="#080456" d="M191.3,306.32c3.06-2.05,7.7-5.92,13.23-9.92h-25.59c4.94,4.11,8.85,7.71,11.1,8.99
				C190.45,305.62,190.87,305.93,191.3,306.32z"/>
			<g>
				<path fill="#080456" d="M301.74,285.65c1.54-0.73,9.03-0.86,10.57-1.5c-5.26-3.81-9.61,5.4-15.96,4.03
					c-21.65-4.65-20.34-15.98-42.46-17c-18.03-0.83-15.66,13.72-32.21,21.54c-5.21,2.46-12.93,6.3-17.36,9.51
					c45.03,1.69,45.16-10.74,90.22-11.7C297.58,288.55,298.43,287.21,301.74,285.65z"/>
				<path fill="none" stroke="#080456" stroke-width="11.6569" stroke-miterlimit="10" d="M301.74,285.65
					c1.54-0.73,9.03-0.86,10.57-1.5c-5.26-3.81-9.61,5.4-15.96,4.03c-21.65-4.65-20.34-15.98-42.46-17
					c-18.03-0.83-15.66,13.72-32.21,21.54c-5.21,2.46-12.93,6.3-17.36,9.51c45.03,1.69,45.16-10.74,90.22-11.7
					C297.58,288.55,298.43,287.21,301.74,285.65z"/>
			</g>
			<g>
				<path fill="#080456" d="M271.95,305.66c3.51-1.72,14.04-9.15,23.13-15.1c-44.94-3.3-45.28,9.8-90.31,11.69
					c-5.53,4-15.32,5.22-18.38,7.26c10.28,9.06,63.77,37.4,39.5,60.76c-22.95,22.08-35.23-19.88-67.07-19.64
					c-5.04,10.08-18.01,17.15-8.2,17.69c44.02,2.42,45.68,17.16,88.93,8.64C247.21,361.04,263.5,309.8,271.95,305.66z"/>
				<path fill="none" stroke="#080456" stroke-width="11.6569" stroke-miterlimit="10" d="M271.95,305.66
					c3.51-1.72,14.04-9.15,23.13-15.1c-44.94-3.3-45.28,9.8-90.31,11.69c-5.53,4-15.32,5.22-18.38,7.26
					c10.28,9.06,63.77,37.4,39.5,60.76c-22.95,22.08-35.23-19.88-67.07-19.64c-5.04,10.08-18.01,17.15-8.2,17.69
					c44.02,2.42,45.68,17.16,88.93,8.64C247.21,361.04,263.5,309.8,271.95,305.66z"/>
			</g>
			<g>
				<path fill="#080456" d="M369.04,361.55c13.95-16.24,35.16-30.72,43.36-50.86c-8.49,13.83-23.63,39.49-36.37,57
					C374.64,369.07,368.1,362.42,369.04,361.55z"/>
				<path fill="none" stroke="#080456" stroke-width="11.6569" stroke-miterlimit="10" d="M369.04,361.55
					c13.95-16.24,35.16-30.72,43.36-50.86c-8.49,13.83-23.63,39.49-36.37,57C374.64,369.07,368.1,362.42,369.04,361.55z"/>
			</g>
			<g>
				<path fill="#080456" d="M399.98,290.63c10.4-1.79-5.68-7.73-15.9-10.34c-21.46-5.46-23.62,7.33-45.73,6.09
					c-15.49-0.87-20.19-4.52-35.27,1.71c-1.04,7.51,12.43,1.32,19.92,2.53C361.62,296.85,361.1,297.32,399.98,290.63z"/>
				<path fill="none" stroke="#080456" stroke-width="11.6569" stroke-miterlimit="10" d="M399.98,290.63
					c10.4-1.79-5.68-7.73-15.9-10.34c-21.46-5.46-23.62,7.33-45.73,6.09c-15.49-0.87-20.19-4.52-35.27,1.71
					c-1.04,7.51,12.43,1.32,19.92,2.53C361.62,296.85,361.1,297.32,399.98,290.63z"/>
			</g>
			<g>
				<path fill="#080456" d="M372.22,372.02c-1.67,2.25-11.91-0.33-13.54,1.75c0.06,0.88,3.91-5.1,4.68-5.54
					c2.03-2.13,3.39,5.4,5.32,3.18C370.85,373.07,373.43,371.37,372.22,372.02z"/>
				<path fill="none" stroke="#080456" stroke-width="11.6569" stroke-miterlimit="10" d="M372.22,372.02
					c-1.67,2.25-11.91-0.33-13.54,1.75c0.06,0.88,3.91-5.1,4.68-5.54c2.03-2.13,3.39,5.4,5.32,3.18
					C370.85,373.07,373.43,371.37,372.22,372.02z"/>
			</g>
			<g>
				<path fill="#080456" d="M238.79,377.07c-1.91,3.98-6.9,6.5-3.34,6.45c64.61-0.93,64.25-12.86,128.78-16.01
					c1.62-2.07,3.21-4.25,4.89-6.5C303.7,364.97,304.22,372.96,238.79,377.07z"/>
				<path fill="none" stroke="#080456" stroke-width="11.6569" stroke-miterlimit="10" d="M238.79,377.07
					c-1.91,3.98-6.9,6.5-3.34,6.45c64.61-0.93,64.25-12.86,128.78-16.01c1.62-2.07,3.21-4.25,4.89-6.5
					C303.7,364.97,304.22,372.96,238.79,377.07z"/>
			</g>
			<g>
				<path fill="#080456" d="M333.55,296.45c14.54,14.75,6.79,21.29,18.38,38.45c9.88,14.63,6.98,15.33,22.67,23.43
					c12.74-17.52,28.54-30.62,37.02-44.46c1.26-3.09-6.86-5.08-5.75-8.24c-3.63-3.78,0.68-14.78-4.55-15.08
					c-39.39-2.32-40.08,13.34-79.5,11.69C315.85,301.99,330.6,293.45,333.55,296.45z"/>
				<path fill="none" stroke="#080456" stroke-width="11.6569" stroke-miterlimit="10" d="M333.55,296.45
					c14.54,14.75,6.79,21.29,18.38,38.45c9.88,14.63,6.98,15.33,22.67,23.43c12.74-17.52,28.54-30.62,37.02-44.46
					c1.26-3.09-6.86-5.08-5.75-8.24c-3.63-3.78,0.68-14.78-4.55-15.08c-39.39-2.32-40.08,13.34-79.5,11.69
					C315.85,301.99,330.6,293.45,333.55,296.45z"/>
			</g>
			<g>
				<path fill="#080456" d="M370.39,361.07c1.82,0.29,7.93,3.3,8.19,3c-0.39-1.22-8.68,5.11-9.76,4.44
					C368.01,369.62,371.2,359.98,370.39,361.07z"/>
				<path fill="none" stroke="#080456" stroke-width="11.6569" stroke-miterlimit="10" d="M370.39,361.07c1.82,0.29,7.93,3.3,8.19,3
					c-0.39-1.22-8.68,5.11-9.76,4.44C368.01,369.62,371.2,359.98,370.39,361.07z"/>
			</g>
			<g>
				<path fill="#080456" d="M295.13,290.56c13.66,1.12,17.54,17.4,29.66,11.01c6.71-3.54-11.51-4.17-18.39-7.37
					c-1.55,0.64-3.13-9.28-4.67-8.55C298.43,287.21,298.18,288.57,295.13,290.56z"/>
				<path fill="none" stroke="#080456" stroke-width="11.6569" stroke-miterlimit="10" d="M295.13,290.56
					c13.66,1.12,17.54,17.4,29.66,11.01c6.71-3.54-11.51-4.17-18.39-7.37c-1.55,0.64-3.13-9.28-4.67-8.55
					C298.43,287.21,298.18,288.57,295.13,290.56z"/>
			</g>
			<g>
				<path fill="#080456" d="M364.11,363.52c-7.02-16.2,4.97-22.88-4.91-37.51c-11.59-17.17-21.88-8.93-36.42-23.69
					c-2.95-3,1.73-13.58-2.45-14.08c-13.61-1.63-13.64,9.38-27.16,11.59c-9.09,5.95-20.14,1.77-23.64,3.49
					c-8.45,4.14-22.98,45.8-30.64,61.73c64.19,5.07,64.21,9.01,128.5,5.3C368.19,369.26,363.29,364.65,364.11,363.52z"/>
				<path fill="none" stroke="#080456" stroke-width="11.6569" stroke-miterlimit="10" d="M364.11,363.52
					c-7.02-16.2,4.97-22.88-4.91-37.51c-11.59-17.17-21.88-8.93-36.42-23.69c-2.95-3,1.73-13.58-2.45-14.08
					c-13.61-1.63-13.64,9.38-27.16,11.59c-9.09,5.95-20.14,1.77-23.64,3.49c-8.45,4.14-22.98,45.8-30.64,61.73
					c64.19,5.07,64.21,9.01,128.5,5.3C368.19,369.26,363.29,364.65,364.11,363.52z"/>
			</g>
			<g>
				<path fill="#080456" d="M160.79,289.15c-15.35-8.53-12.41-20.08-29.87-21.52c-21.55-1.78-21.57,5.52-42.98,8.54
					c-17.11,2.41-19.86-5.05-35.34,2.63c-9.86,4.89-25.81,11.8-14.87,12.98c70.45,7.62,70.52,11.22,141.35,9.26
					C174.5,297.24,166.67,292.42,160.79,289.15z"/>
				<path fill="none" stroke="#080456" stroke-width="11.6569" stroke-miterlimit="10" d="M160.79,289.15
					c-15.35-8.53-12.41-20.08-29.87-21.52c-21.55-1.78-21.57,5.52-42.98,8.54c-17.11,2.41-19.86-5.05-35.34,2.63
					c-9.86,4.89-25.81,11.8-14.87,12.98c70.45,7.62,70.52,11.22,141.35,9.26C174.5,297.24,166.67,292.42,160.79,289.15z"/>
			</g>
			<g>
				<path fill="#080456" d="M28.65,301.98c-0.14-0.27-0.9-0.73-0.81-0.44c4.8,14.07,19.27,23.28,26.93,35.75
					c0.66,0.86,2.93,1.48,2.33,0.58C44.45,318.84,39.14,322.14,28.65,301.98z"/>
				<path fill="none" stroke="#080456" stroke-width="11.6569" stroke-miterlimit="10" d="M28.65,301.98
					c-0.14-0.27-0.9-0.73-0.81-0.44c4.8,14.07,19.27,23.28,26.93,35.75c0.66,0.86,2.93,1.48,2.33,0.58
					C44.45,318.84,39.14,322.14,28.65,301.98z"/>
			</g>
			<g>
				<path fill="#080456" d="M187.42,303.25c0.52-0.26,7.63,4.88,8.32,4.42c-0.43-0.38-7.6,1.98-8,1.76
					c-2.25-1.29-3.73-13.56-8.67-17.67c-70.83-1.98-70.9,7.62-141.74,9.28c-2.82,0.07-9.9-2.27-8.94,0.38
					c7.76,21.37,5.99,25.46,26.72,34.78c48.74,21.9,50.43,26.12,103.85,24.93C168.28,342.51,180.57,306.61,187.42,303.25z"/>
				<path fill="none" stroke="#080456" stroke-width="11.6569" stroke-miterlimit="10" d="M187.42,303.25
					c0.52-0.26,7.63,4.88,8.32,4.42c-0.43-0.38-7.6,1.98-8,1.76c-2.25-1.29-3.73-13.56-8.67-17.67
					c-70.83-1.98-70.9,7.62-141.74,9.28c-2.82,0.07-9.9-2.27-8.94,0.38c7.76,21.37,5.99,25.46,26.72,34.78
					c48.74,21.9,50.43,26.12,103.85,24.93C168.28,342.51,180.57,306.61,187.42,303.25z"/>
			</g>
			<g>
				<path fill="#080456" d="M188.44,309.97c-0.69,0.46-0.49-6.98-1.02-6.72c-6.85,3.36-17.09,30.51-26.39,49.13
					c28.19,14.81,40.78,38.87,63.99,17.06C248.87,347.02,198.72,319.03,188.44,309.97z"/>
				<path fill="none" stroke="#080456" stroke-width="11.6569" stroke-miterlimit="10" d="M188.44,309.97
					c-0.69,0.46-0.49-6.98-1.02-6.72c-6.85,3.36-17.09,30.51-26.39,49.13c28.19,14.81,40.78,38.87,63.99,17.06
					C248.87,347.02,198.72,319.03,188.44,309.97z"/>
			</g>
		</g>
		<path fill="#080456" d="M222.42,444.1c-8.17,0-16.39-0.46-24.63-1.4c-57.08-6.47-108.23-34.8-144.02-79.77
			C17.98,317.96,1.83,261.74,8.29,204.61C14.76,147.49,43.07,96.3,88,60.48c44.94-35.82,101.12-51.98,158.2-45.51
			c57.08,6.47,108.23,34.8,144.02,79.77c35.79,44.97,51.94,101.2,45.47,158.32c-6.47,57.13-34.77,108.31-79.71,144.13
			C317.54,427.85,270.86,444.1,222.42,444.1z M221.6,25.77c-45.69,0-89.73,15.33-126,44.25c-42.39,33.79-69.09,82.08-75.2,135.97
			C7.81,317.23,88,417.99,199.16,430.59c7.77,0.88,15.53,1.32,23.23,1.32c45.69,0,89.73-15.33,126-44.25
			c42.39-33.79,69.09-82.08,75.2-135.97l0,0c12.59-111.25-67.59-212.01-178.75-224.61C237.07,26.2,229.31,25.77,221.6,25.77z"/>
		<path fill="#080456" d="M398.04,287.96c0,0,19.84-15.6,27.59-12.07c-3.22,12.07-10.53,27.92-10.53,27.92l-4.87,8.54L398.04,287.96
			z"/>
		<ellipse fill="#080456" cx="327.98" cy="306.86" rx="39.6" ry="39.63"/>
		<ellipse fill="#080456" cx="167.75" cy="316.62" rx="46.3" ry="39.63"/>
	</g>
</g>
<g id="Layer_2">
</g>
</svg>
