<?xml version="1.0" encoding="UTF-8" standalone="no"?><!-- Generator: Gravit.io --><svg xmlns="http://www.w3.org/2000/svg" xmlns:xlink="http://www.w3.org/1999/xlink" style="isolation:isolate" viewBox="0 0 170 170" width="170pt" height="170pt"><defs><clipPath id="_clipPath_Mnoh5wZ5Kb9hYfMNHxU4jHYjufSYf7zU"><rect width="170" height="170"/></clipPath></defs><g clip-path="url(#_clipPath_Mnoh5wZ5Kb9hYfMNHxU4jHYjufSYf7zU)"><circle vector-effect="non-scaling-stroke" cx="85" cy="85" r="85" fill="rgb(15,15,48)"/><path d=" M 44.579 82.983 C 44.579 85.29 43.996 87.33 42.821 89.122 C 41.647 90.914 39.966 92.303 37.763 93.289 C 35.559 94.284 32.979 94.772 30.012 94.772 C 27.534 94.772 25.459 94.601 23.787 94.249 C 22.115 93.898 20.366 93.298 18.549 92.432 L 18.549 83.489 C 20.461 84.475 22.458 85.238 24.525 85.787 C 26.591 86.336 28.494 86.61 30.218 86.61 C 31.71 86.61 32.799 86.353 33.493 85.838 C 34.188 85.324 34.539 84.655 34.539 83.841 C 34.539 83.335 34.402 82.889 34.119 82.503 C 33.836 82.126 33.39 81.74 32.773 81.346 C 32.156 80.96 30.509 80.162 27.826 78.953 C 25.399 77.856 23.582 76.784 22.373 75.747 C 21.164 74.709 20.264 73.526 19.68 72.189 C 19.097 70.851 18.806 69.265 18.806 67.439 C 18.806 64.018 20.049 61.343 22.544 59.431 C 25.039 57.519 28.46 56.558 32.816 56.558 C 36.665 56.558 40.584 57.45 44.588 59.225 L 41.51 66.976 C 38.037 65.381 35.036 64.584 32.507 64.584 C 31.204 64.584 30.252 64.815 29.661 65.269 C 29.069 65.724 28.769 66.298 28.769 66.976 C 28.769 67.704 29.146 68.356 29.901 68.931 C 30.655 69.505 32.704 70.56 36.04 72.086 C 39.246 73.526 41.467 75.069 42.71 76.724 C 43.962 78.388 44.579 80.471 44.579 82.983 Z " fill="rgb(255,255,255)"/><path d=" M 67.24 94.266 L 57.2 94.266 L 57.2 65.312 L 48.129 65.312 L 48.129 57.099 L 76.294 57.099 L 76.294 65.312 L 67.24 65.312 L 67.24 94.266 Z " fill="rgb(255,255,255)"/><path d=" M 151.23 68.922 C 151.23 73.072 150.004 76.278 147.56 78.542 C 145.108 80.805 141.636 81.937 137.126 81.937 L 134.305 81.937 L 134.305 94.266 L 124.265 94.266 L 124.265 57.099 L 137.126 57.099 C 141.816 57.099 145.348 58.127 147.698 60.177 C 150.047 62.226 151.23 65.141 151.23 68.922 Z  M 134.297 73.749 L 136.123 73.749 C 137.632 73.749 138.832 73.329 139.724 72.48 C 140.615 71.631 141.061 70.465 141.061 68.973 C 141.061 66.461 139.672 65.209 136.894 65.209 L 134.305 65.209 L 134.305 73.749 L 134.297 73.749 Z " fill="rgb(255,255,255)"/><path d=" M 18 112.906 L 18 100.148 L 21.447 100.148 L 21.447 110.128 L 26.36 110.128 L 26.36 112.915 L 18 112.915 L 18 112.906 Z " fill="rgb(255,255,255)"/><path d=" M 33.124 104.872 L 35.319 100.14 L 39.058 100.14 L 34.865 107.916 L 34.865 112.898 L 31.392 112.898 L 31.392 108.019 L 27.2 100.14 L 30.955 100.14 L 33.124 104.872 Z " fill="rgb(255,255,255)"/><path d=" M 52.759 112.906 L 48.24 112.906 L 43.585 103.921 L 43.507 103.921 C 43.619 105.335 43.67 106.416 43.67 107.162 L 43.67 112.915 L 40.618 112.915 L 40.618 100.157 L 45.119 100.157 L 49.758 109.022 L 49.809 109.022 C 49.723 107.736 49.689 106.707 49.689 105.927 L 49.689 100.157 L 52.759 100.157 L 52.759 112.906 Z " fill="rgb(255,255,255)"/><path d=" M 63.27 112.906 L 55.699 112.906 L 55.699 100.148 L 63.27 100.148 L 63.27 102.917 L 59.146 102.917 L 59.146 104.924 L 62.97 104.924 L 62.97 107.693 L 59.146 107.693 L 59.146 110.102 L 63.27 110.102 L 63.27 112.906 Z " fill="rgb(255,255,255)"/><path d=" M 71.313 112.906 L 67.866 112.906 L 67.866 102.969 L 64.754 102.969 L 64.754 100.148 L 74.416 100.148 L 74.416 102.969 L 71.313 102.969 L 71.313 112.906 Z " fill="rgb(255,255,255)"/><path d=" M 82.047 112.906 L 78.6 112.906 L 78.6 102.969 L 75.488 102.969 L 75.488 100.148 L 85.151 100.148 L 85.151 102.969 L 82.047 102.969 L 82.047 112.906 L 82.047 112.906 Z " fill="rgb(255,255,255)"/><path d=" M 94.728 112.906 L 87.157 112.906 L 87.157 100.148 L 94.728 100.148 L 94.728 102.917 L 90.604 102.917 L 90.604 104.924 L 94.428 104.924 L 94.428 107.693 L 90.604 107.693 L 90.604 110.102 L 94.728 110.102 L 94.728 112.906 Z " fill="rgb(255,255,255)"/><path d=" M 108.069 112.906 L 104.605 112.906 L 104.605 107.702 L 100.601 107.702 L 100.601 112.906 L 97.137 112.906 L 97.137 100.148 L 100.601 100.148 L 100.601 104.881 L 104.605 104.881 L 104.605 100.148 L 108.069 100.148 L 108.069 112.906 Z " fill="rgb(255,255,255)"/><path d=" M 122.936 106.51 C 122.936 108.653 122.413 110.291 121.358 111.406 C 120.304 112.52 118.761 113.078 116.737 113.078 C 114.739 113.078 113.205 112.52 112.133 111.397 C 111.07 110.274 110.53 108.636 110.53 106.493 C 110.53 104.366 111.061 102.746 112.124 101.623 C 113.188 100.5 114.731 99.942 116.754 99.942 C 118.786 99.942 120.321 100.5 121.367 101.606 C 122.413 102.712 122.936 104.349 122.936 106.51 Z  M 114.165 106.51 C 114.165 108.979 115.022 110.214 116.737 110.214 C 117.612 110.214 118.255 109.914 118.675 109.314 C 119.095 108.713 119.309 107.779 119.309 106.51 C 119.309 105.232 119.095 104.298 118.666 103.689 C 118.238 103.08 117.603 102.78 116.754 102.78 C 115.022 102.772 114.165 104.015 114.165 106.51 Z " fill="rgb(255,255,255)"/><path d=" M 125.423 112.906 L 125.423 100.148 L 128.869 100.148 L 128.869 110.128 L 133.782 110.128 L 133.782 112.915 L 125.423 112.915 L 125.423 112.906 Z " fill="rgb(255,255,255)"/><path d=" M 141.559 112.906 L 138.952 103.715 L 138.875 103.715 C 138.995 105.284 139.055 106.493 139.055 107.367 L 139.055 112.906 L 136.003 112.906 L 136.003 100.148 L 140.59 100.148 L 143.248 109.211 L 143.316 109.211 L 145.923 100.148 L 150.518 100.148 L 150.518 112.906 L 147.355 112.906 L 147.355 107.307 C 147.355 107.016 147.363 106.69 147.372 106.338 C 147.38 105.987 147.423 105.112 147.492 103.732 L 147.415 103.732 L 144.842 112.906 L 141.559 112.906 L 141.559 112.906 Z " fill="rgb(255,255,255)"/><g><rect x="96.64" y="57.431" width="7.254" height="34.811" transform="matrix(0.672,-0.74,0.74,0.672,-22.542,98.751)" fill="rgb(255,0,0)"/><path d=" M 99.469 55.812 C 88.555 55.812 79.698 64.661 79.698 75.584 C 79.698 86.498 88.546 95.355 99.469 95.355 C 110.384 95.355 119.241 86.507 119.241 75.584 C 119.241 64.661 110.392 55.812 99.469 55.812 Z  M 99.469 88.762 C 92.19 88.762 86.291 82.863 86.291 75.584 C 86.291 68.305 92.19 62.406 99.469 62.406 C 106.749 62.406 112.647 68.305 112.647 75.584 C 112.647 82.863 106.749 88.762 99.469 88.762 Z " fill="rgb(255,0,0)"/></g></g></svg>