<?xml version="1.0" encoding="utf-8"?>
<!-- Generator: Adobe Illustrator 25.2.3, SVG Export Plug-In . SVG Version: 6.00 Build 0)  -->
<svg version="1.1" xmlns="http://www.w3.org/2000/svg" xmlns:xlink="http://www.w3.org/1999/xlink" x="0px" y="0px"
	 viewBox="0 0 442 450" enable-background="new 0 0 442 450" xml:space="preserve">
<g id="Layer_1">
	<g>
		<path fill="none" d="M160.34,422.62c12.11,3.79,24.75,6.5,37.81,7.98c7.72,0.88,15.4,1.3,22.99,1.3
			c101.73,0,189.72-76.62,201.44-180.06c12.59-111.16-67.6-211.84-178.75-224.43c-7.72-0.87-15.4-1.3-22.99-1.3
			c-101.73,0-189.72,76.62-201.44,180.06c-0.87,7.67-1.28,15.29-1.29,22.84h142.23V422.62z"/>
		<path fill="#080456" d="M389.22,95.02c-35.79-44.94-86.94-73.24-144.02-79.71C188.13,8.84,131.94,24.99,87,60.78
			C42.07,96.57,13.76,147.71,7.29,204.8c-3.42,30.23-0.5,60.2,8.31,88.39l-5.2-64.18h7.71c0.01-7.55,0.42-15.17,1.29-22.84
			C31.12,102.73,119.11,26.11,220.84,26.11c7.59,0,15.27,0.43,22.99,1.3c111.16,12.59,191.35,113.27,178.75,224.43
			C410.87,355.28,322.88,431.9,221.15,431.9c-7.59,0-15.27-0.43-22.99-1.3c-13.07-1.48-25.7-4.19-37.81-7.98v2.98h-26.79
			c19.82,8.79,41.07,14.6,63.23,17.11c8.24,0.93,16.46,1.4,24.63,1.4c48.44,0,95.12-16.24,133.57-46.87
			c44.93-35.79,73.24-86.94,79.71-144.02S425.01,139.95,389.22,95.02z"/>
		<path fill="#080456" d="M160.34,422.62L184,232l-165.88-2.99C18.05,317.95,76.54,396.4,160.34,422.62z"/>
		<path fill="#080456" d="M160.34,422.62C76.54,396.4,18.05,317.95,18.12,229.01h-7.71l5.2,64.18
			c7.83,25.04,20.32,48.67,37.16,69.81c21.9,27.49,49.55,48.75,80.79,62.6h26.79V422.62z"/>
	</g>
	<path fill="#080456" d="M191.82,386c-0.39-0.31-0.83-0.57-1.17-0.92c-1.56-1.67-1.24-3.52,0.75-4.53c4.87-2.48,9.72-5,14.6-7.46
		c1.16-0.58,2.38-1.04,3.6-1.5c1.94-0.74,3.38-0.16,4.77,1.41c1.02,1.16,2.48,1.95,3.83,2.78c0.87,0.54,1.61,0.19,2.36-0.57
		c1.48-1.48,3.07-2.88,4.73-4.15c1.99-1.53,4.14-1.51,6.34-0.29c2.37,1.31,4.78,2.52,7.17,3.79c0.86,0.46,1.51,0.37,2.26-0.35
		c1.08-1.03,2.28-1.96,3.53-2.79c4.21-2.8,7.05-2.5,10.82,0.87c1.41,1.26,2.96,2.39,4.56,3.39c1.24,0.77,2.52,0.68,3.69-0.47
		c2-1.98,4.52-3.03,7.16-3.97c2.78-0.98,4.97-0.42,7.01,1.54c0.94,0.9,1.94,1.76,2.99,2.52c2.86,2.07,4.95,2.09,7.89,0.12
		c2.6-1.75,5.34-3.19,8.47-3.7c1.82-0.29,3.14,0.47,3.38,2.12c0.1,0.65-0.18,1.61-0.64,2.05c-3.34,3.19-7.5,4.98-11.78,6.45
		c-2.27,0.77-4.63,1.29-6.97,1.81c-4.14,0.92-8.01,0.05-11.49-2.24c-2.47-1.63-4.83-1.48-7.39-0.31c-1.86,0.86-3.8,1.58-5.74,2.22
		c-2.38,0.79-4.66,0.45-6.72-1.03c-1.18-0.85-2.29-1.81-3.52-2.57c-0.49-0.3-1.29-0.39-1.85-0.23c-3.46,0.98-6.88,2.13-10.35,3.08
		c-2,0.54-3.87-0.05-5.52-1.3c-0.32-0.24-0.63-0.5-0.94-0.75c-2.03-1.63-2.61-1.69-4.83-0.48c-1.32,0.72-2.66,1.41-3.96,2.17
		c-4.34,2.56-8.5,1.8-12.45-0.81c-1.37-0.9-2.58-0.93-3.93-0.26c-2.42,1.21-4.83,2.44-7.25,3.66c-0.53,0.26-1.07,0.49-1.6,0.73
		C193.03,386,192.43,386,191.82,386z"/>
	<path fill="#080456" d="M350.98,351.73c-3.24,0.5-5.9-1.03-8.49-2.54c-2.17-1.27-4.22-1.35-6.44-0.34
		c-1.32,0.6-2.71,1.06-4.03,1.67c-4.02,1.85-7.67,1.34-10.97-1.61c-0.3-0.27-0.65-0.49-0.92-0.78c-0.96-1.04-1.97-0.98-3.25-0.52
		c-2.73,0.97-5.5,1.85-8.31,2.59c-2.84,0.75-5.48,0.48-7.81-1.72c-1.97-1.87-2.53-1.77-4.92-0.44c-1.01,0.56-2.04,1.09-3.01,1.7
		c-4.45,2.79-8.85,2.61-13.12-0.3c-1.5-1.02-2.85-1-4.35-0.22c-2.09,1.08-4.17,2.2-6.29,3.21c-0.89,0.43-1.87,0.72-2.84,0.93
		c-1.34,0.28-2.31-0.27-2.94-1.52c-0.98-1.95-0.83-2.71,1.08-3.7c5.34-2.77,10.7-5.5,16.07-8.21c0.89-0.45,1.86-0.73,2.81-1.06
		c1.58-0.56,2.84-0.07,3.86,1.21c1.14,1.44,2.44,2.62,4.27,3.17c0.94,0.28,1.59,0.17,2.27-0.54c1.08-1.12,2.2-2.2,3.37-3.22
		c3-2.64,5.85-2.66,9.17-0.49c1.95,1.28,4.14,2.23,6.28,3.17c0.43,0.19,1.26-0.21,1.76-0.55c1.69-1.15,3.23-2.53,4.97-3.57
		c2.93-1.75,5.72-1.25,8.35,0.88c1.82,1.48,3.71,2.88,5.64,4.2c1.27,0.87,2.5,0.64,3.64-0.48c2.05-2.02,4.6-3.15,7.31-4.02
		c2.58-0.83,4.8-0.45,6.76,1.52c1.02,1.03,2.18,1.93,3.35,2.79c2.48,1.82,4.91,1.73,7.53,0.05c2.05-1.32,4.31-2.33,6.55-3.32
		c0.88-0.39,1.94-0.44,2.93-0.5c1.21-0.08,1.93,0.66,2.38,1.72c0.45,1.06,0.23,1.87-0.67,2.65c-3.52,3.05-7.63,5.02-12.01,6.35
		c-3.23,0.99-6.59,1.58-9.89,2.34C351.03,352.07,351,351.9,350.98,351.73z"/>
	<path fill="#080456" d="M264.31,320.91c-3.1,0.3-5.73-1.05-8.2-2.56c-2.41-1.47-4.65-1.48-7.12-0.33
		c-1.77,0.82-3.61,1.49-5.45,2.16c-2.69,0.97-5.23,0.65-7.55-1.08c-0.36-0.27-0.82-0.46-1.09-0.79c-1.93-2.35-4.04-2.08-6.62-0.95
		c-2.45,1.07-5.15,1.59-7.77,2.23c-2.08,0.5-3.97-0.1-5.62-1.45c-0.43-0.35-0.84-0.72-1.29-1.04c-1.32-0.94-2.63-1.27-4.14-0.23
		c-1.31,0.91-2.79,1.58-4.18,2.38c-4.17,2.4-8.25,1.92-12.06-0.67c-1.76-1.2-3.24-1.02-4.89-0.18c-2.14,1.09-4.27,2.22-6.43,3.29
		c-0.62,0.31-1.31,0.55-1.99,0.67c-2.04,0.38-4.35-1.97-3.84-3.93c0.08-0.31,0.49-0.61,0.82-0.78c6.06-3.1,12.1-6.25,18.22-9.25
		c2.61-1.28,3.83-0.79,5.84,1.25c1,1.01,2.24,1.81,3.46,2.55c1.01,0.61,1.87,0.3,2.75-0.62c1.38-1.44,2.94-2.71,4.51-3.94
		c2.22-1.74,4.5-1.49,6.86-0.13c2.26,1.3,4.61,2.42,6.92,3.63c0.77,0.4,1.32,0.27,1.99-0.34c1.18-1.08,2.44-2.1,3.79-2.95
		c4.39-2.78,7.04-2.38,10.92,1.17c1.45,1.33,3.2,2.36,4.9,3.39c0.97,0.58,1.97,0.39,2.86-0.5c2.22-2.22,4.99-3.44,7.97-4.34
		c2.39-0.72,4.31-0.17,6.1,1.43c1.23,1.1,2.49,2.18,3.84,3.15c2.48,1.78,4.96,1.52,7.39-0.2c2.69-1.9,5.59-3.33,8.93-3.71
		c1.22-0.14,2.13,0.25,2.58,1.33c0.43,1.03,0.73,1.94-0.54,2.97c-3.95,3.22-8.35,5.44-13.24,6.72c-2.84,0.74-5.71,1.39-8.57,2.08
		C264.36,321.18,264.33,321.05,264.31,320.91z"/>
	<g>
		<path fill="#07779E" d="M128.45,71.45c0.67,0,1.4-0.04,1.95,0.26c0.97,0.51,1.88,1.15,2.72,1.86c1.99,1.69,4.2,1.53,6.76,1.01
			c-0.33-0.35-0.47-0.65-0.66-0.68c-1.31-0.21-2.64-0.33-3.94-0.56c-0.51-0.09-1.05-0.31-1.44-0.63c-0.55-0.45-0.95-1.08-1.47-1.58
			c-0.62-0.6-1.32-1.12-1.96-1.7c-0.66-0.59-1.28-1.21-1.92-1.82c-0.23,0-0.47,0-0.7,0c0.15,0.62,0.29,1.24,0.44,1.86
			C127.08,69.81,127.11,70.31,128.45,71.45z"/>
		<path fill="#07779E" d="M220.38,133.08c1.23-1.15,2.52-2.24,3.63-3.5c1.12-1.27,1.92-2.78,2.24-4.47
			c0.17-0.91-0.84-3.31-2.05-5.96c-0.31-0.68-0.69-1.35-1.13-1.96c-2.62-3.65-6.16-6.04-10.4-7.37c-3.33-1.05-5.73-2.83-6.72-3.52
			c-3.48-2.46-13.6-7.01-15.36-7.87c-1.26-0.62-2.45-1.41-3.6-2.22c-1.17-0.83-4.36-3.41-4.87-3.74c-1.7-1.1-3.31-2.44-5.15-3.2
			c-3.32-1.36-6.78-2.41-10.2-3.51c-4.47-1.43-8.82-3.12-12.76-5.71c-2.24-1.47-4.43-2.97-5.82-5.4c-0.33-0.58-1.11-1.11-1.77-1.26
			c-2.83-0.63-5.02-2.2-6.89-4.32c-0.27-0.3-0.55-0.6-0.87-0.84c-0.55-0.42-1.07-0.18-1.07,0.41c-0.01,0.77,0.13,1.61,0.44,2.31
			c0.36,0.8,0.97,1.49,1.58,2.38c0.21-0.37,0.4-0.71,0.59-1.05c0.06,0.06,0.12,0.12,0.18,0.18c-0.17,0.61-0.34,1.21-0.57,2.01
			c2.48-0.8,4.59-0.6,6.41,1.06c-2.14-1.25-4.37-1.19-6.65-0.46c-2.54,0.81-4.83,0.43-6.86-1.42c-0.7-0.63-1.54-1.13-2.37-1.57
			c-0.58-0.3-1.24-0.3-1.87,0.39c1.52,1.39,2.99,2.84,4.58,4.13c0.79,0.64,1.77,1.22,2.74,1.41c2.9,0.54,5.86,0.83,8.77,1.31
			c1.6,0.26,0.9,0.92,0.88,1c0.54,0.27,1.08,0.54,1.61,0.82c3.86,2.02,7.28,4.69,10.54,7.54c4.41,3.87,9.25,7.02,14.76,9.09
			c0.7,0.27,1.43,0.52,2.06,0.9c1.41,0.85,24.03,17.48,25.78,18.9c0.67,0.54,1.32,1.15,1.82,1.84c0.63,0.87,0.71,2.15,0.28,2.96
			c0.04-2.11-1.06-3.37-2.63-4.35c-1.58-0.98-3.16-1.97-4.68-3.03c-1.17-0.82-2.35-1.24-2.35-1.33c-2.11-1.21-4.22-2.43-6.34-3.61
			c-0.57-0.32-25.69-12.62-31.1-13.93c-3.07-0.74-6.17-1.07-9.32-0.67c-5.73,0.73-10.15,3.81-13.94,7.93
			c-3.84,4.17-5.92,8.93-5.04,14.78c0.72,4.76,2.31,9.06,5.73,12.53c2.71,2.75,5.41,5.5,7.71,8.64c3.74,5.11,8.4,9.38,13.04,13.65
			c4.04,3.73,7.95,7.58,11.27,12c1.74,2.32,1.61,3.79,0.38,6.02c-0.6,1.09-0.71,1.6-1.57,2.56c-2.9,3.21-4.88,6.91-5.98,11.09
			c-1.27,4.79-1.13,9.73-1.59,14.61c-0.26,2.71-0.54,5.43-1.06,8.1c-0.81,4.16-1.81,8.28-2.78,12.41c-0.71,3.04-1.36,6.03-3.17,8.77
			c-1.97,2.97-0.32,5.46,3.26,5.47c0.09,0,0.17,0,0.26,0c4.54-0.03,9.07-0.07,13.61-0.09c2.88-0.01,5.76,0.05,8.64-0.04
			c0.94-0.03,1.9-0.38,2.8-0.72c0.24-0.09,0.42-0.69,0.39-1.04c-0.01-0.2-0.46-0.44-0.76-0.54c-1.81-0.6-3.61-1.36-5.59-0.84
			c-0.1,0.03-0.24,0-0.34-0.04c-1.98-0.65-4.02-1.18-5.68-2.56c-1.05-0.87-2.1-1.76-3.2-2.55c-1.91-1.37-2.3-3.27-1.94-5.41
			c0.22-1.31,0.63-2.6,0.94-3.9c1.71-7.27,4.64-14.11,7.51-20.96c3.16-7.55,6.36-15.09,8.94-22.88c0.2-0.61,0.59-1.2,1.02-1.69
			c1.86-2.11,2.69-5.35,1.04-8.15c-0.69-1.17-1.26-2.43-1.68-3.72c-1.82-5.67-3.72-11.32-6.57-16.57
			c-2.59-4.77-5.15-9.58-8.08-14.13c-2-3.11-4.63-5.81-6.97-8.7c-0.97-1.19,8.44,4,7.97,4.24c0.01,0.08,9.52,3,13.34,6.38
			c0.07-0.05,9.24,5.91,26.41,13.03c4-1.72,8.07-3.14,12.49-3.22c0.39-0.01,0.77-0.15,1.15-0.23
			C217.26,136.64,218.22,135.09,220.38,133.08z"/>
		<path fill="#07779E" d="M242.54,112.54c-9.07-1.42-14.5,10.75-14.5,10.75l-0.5,2.56c-2.8,3.27-5.79,7.16-7.08,8.15
			c-1.66,1.27-1.96,3.19-1.92,5.2c0.24,0.02,0.42,0.05,0.58,0.04c2.27-0.13,4.34,0.51,6.37,1.49c1.14,0.55,2.39,0.88,3.62,1.18
			c1.78,0.43,3.58,0.72,5.38,1.09c0.48,0.1,0.95,0.26,1.43,0.4c0.44,0.13,2.25,0.25,5.31,2.68c1.41,1.12,2.62,0.79,3.69-0.65
			c0.31-0.42,0.89-0.64,1.32-0.98c0.26-0.2,0.59-0.41,0.67-0.69c0.05-0.18-0.25-0.5-0.45-0.71c-0.4-0.42-0.85-0.8-1.27-1.2
			c0.66,0.13,1.19,0.41,1.75,0.6c0.83,0.28,1.6,0.34,2.26-0.5c0.21-0.27,0.8-0.3,1.22-0.31c0.51-0.02,1.04,0.15,1.55,0.12
			c0.92-0.06,1.14-0.37,1.07-1.29c-0.09-1.06-0.2-2.11-0.31-3.29c0.02,0.01-0.1-0.1-0.23-0.13c-0.14-0.03-0.28-0.06-0.42-0.09
			c3.05-0.65,4.89-4.61,5.5-6.1C259.63,115.95,246.47,113.3,242.54,112.54z"/>
	</g>
</g>
<g id="Layer_2">
</g>
</svg>
