<?xml version="1.0" encoding="utf-8"?>
<!-- Generator: Adobe Illustrator 25.2.1, SVG Export Plug-In . SVG Version: 6.00 Build 0)  -->
<svg version="1.1" xmlns="http://www.w3.org/2000/svg" xmlns:xlink="http://www.w3.org/1999/xlink" x="0px" y="0px"
	 viewBox="0 0 442 450" enable-background="new 0 0 442 450" xml:space="preserve">
<g id="Layer_1">
	<g>
		<g>
			<path fill="none" d="M424.89,205.15c-9.73-95.69-84.92-175.06-184.38-186.33C125.83,5.83,22.33,88.27,9.34,202.96
				c-0.08,0.73-0.14,1.46-0.22,2.19H424.89z"/>
			<path fill="#E6E6E6" d="M193.46,434.15c114.68,12.99,218.17-69.45,231.16-184.14c1.72-15.21,1.75-30.23,0.26-44.86H9.12
				C-2.58,318.96,79.51,421.24,193.46,434.15z"/>
		</g>
		<g>
			<ellipse fill="#C69C6D" cx="195.14" cy="189.16" rx="28.81" ry="28.81"/>
			<ellipse fill="#C69C6D" cx="213.19" cy="204.14" rx="27.65" ry="27.66"/>
			<ellipse fill="#C69C6D" cx="250.06" cy="214.9" rx="27.65" ry="27.66"/>
			<ellipse fill="#C69C6D" cx="277.72" cy="214.9" rx="27.65" ry="27.66"/>
			<ellipse fill="#C69C6D" cx="294.62" cy="242.56" rx="27.65" ry="27.66"/>
			<ellipse fill="#C69C6D" cx="310.75" cy="252.54" rx="27.65" ry="27.66"/>
			<ellipse fill="#C69C6D" cx="316.89" cy="280.2" rx="27.65" ry="27.66"/>
			<circle fill="#C69C6D" cx="335.33" cy="307.86" r="16.9"/>
			<circle fill="#C69C6D" cx="330.72" cy="332.45" r="9.99"/>
			<circle fill="#C69C6D" cx="322.27" cy="344.74" r="7.68"/>
			<circle fill="#C69C6D" cx="351.85" cy="328.22" r="4.99"/>
			<circle fill="#C69C6D" cx="309.21" cy="347.81" r="3.84"/>
			<circle fill="#C69C6D" cx="313.23" cy="356.85" r="1.92"/>
			<circle fill="#C69C6D" cx="345.7" cy="335.9" r="1.92"/>
			<circle fill="#C69C6D" cx="350.69" cy="338.59" r="1.54"/>
			<circle fill="#C69C6D" cx="314.59" cy="318.62" r="14.6"/>
			<rect x="54.17" y="332.45" fill="#1A1A1A" width="221.24" height="27.66"/>
			<g>
				<ellipse cx="159.16" cy="371.88" rx="28.04" ry="28.04"/>
				
					<ellipse fill="#999999" stroke="#4D4D4D" stroke-width="2.3047" stroke-miterlimit="10" cx="159.16" cy="371.88" rx="17.67" ry="17.67"/>
				<circle fill="#FFFFFF" cx="159.16" cy="371.88" r="4.61"/>
				<circle fill="#4D4D4D" cx="158.98" cy="363.86" r="1.67"/>
				<circle fill="#4D4D4D" cx="152.12" cy="368.03" r="1.67"/>
				<circle fill="#4D4D4D" cx="151.13" cy="372.06" r="1.67"/>
				<circle fill="#4D4D4D" cx="152.3" cy="376.05" r="1.67"/>
				<circle fill="#4D4D4D" cx="155.3" cy="378.92" r="1.67"/>
				<circle fill="#4D4D4D" cx="159.34" cy="379.91" r="1.67"/>
				<circle fill="#4D4D4D" cx="163.33" cy="378.74" r="1.67"/>
				<circle fill="#4D4D4D" cx="166.2" cy="375.74" r="1.67"/>
				<circle fill="#4D4D4D" cx="167.35" cy="371.8" r="1.67"/>
				<circle fill="#4D4D4D" cx="166.37" cy="367.81" r="1.67"/>
				<circle fill="#4D4D4D" cx="163.37" cy="364.75" r="1.67"/>
				<circle fill="#4D4D4D" cx="155.08" cy="364.67" r="1.67"/>
			</g>
			<g>
				<ellipse cx="232.14" cy="371.88" rx="28.04" ry="28.04"/>
				
					<ellipse fill="#999999" stroke="#4D4D4D" stroke-width="2.3047" stroke-miterlimit="10" cx="232.14" cy="371.88" rx="17.67" ry="17.67"/>
				<circle fill="#FFFFFF" cx="232.14" cy="371.88" r="4.61"/>
				<circle fill="#4D4D4D" cx="231.96" cy="363.86" r="1.67"/>
				<circle fill="#4D4D4D" cx="225.1" cy="368.03" r="1.67"/>
				<circle fill="#4D4D4D" cx="224.11" cy="372.06" r="1.67"/>
				<circle fill="#4D4D4D" cx="225.28" cy="376.05" r="1.67"/>
				<circle fill="#4D4D4D" cx="228.28" cy="378.92" r="1.67"/>
				<circle fill="#4D4D4D" cx="232.32" cy="379.91" r="1.67"/>
				<circle fill="#4D4D4D" cx="236.3" cy="378.74" r="1.67"/>
				<circle fill="#4D4D4D" cx="239.18" cy="375.74" r="1.67"/>
				<circle fill="#4D4D4D" cx="240.32" cy="371.8" r="1.67"/>
				<circle fill="#4D4D4D" cx="239.35" cy="367.81" r="1.67"/>
				<circle fill="#4D4D4D" cx="236.34" cy="364.75" r="1.67"/>
				<circle fill="#4D4D4D" cx="228.06" cy="364.67" r="1.67"/>
			</g>
			<path fill="#666666" d="M111.79,370.86H83.36c-5.07,0-9.22-4.15-9.22-9.22v-3.84c0-5.07,4.15-9.22,9.22-9.22h28.42
				c5.07,0,9.22,4.15,9.22,9.22v3.84C121,366.71,116.86,370.86,111.79,370.86z"/>
			<path fill="#666666" d="M125.61,373.16c0,0,0.77-31.5,33.8-32.27c37.66-0.88,32.26,33.04,32.26,33.04c4.61,0,8.07-0.38,8.07-0.38
				c0-6.15,1.92-31.88,34.18-31.88c9.22,0,29.19,0.77,29.19,32.27c2.3,0,3.84,0,3.84,0s3.07-30.73-17.67-36.88
				c-11.52,0-117.92,0.38-117.92,0.38c-3.07,3.84-9.6,26.51-8.83,35.73C124.08,373.16,125.61,373.16,125.61,373.16z"/>
			<g>
				<path fill="#1A1A1A" d="M86.64,337.69l2.48,0.77c1.28,0.4,2.64-0.32,3.03-1.6l10.72-34.58c0.4-1.28-0.32-2.64-1.6-3.03
					l-2.48-0.77c-1.28-0.4-2.64,0.32-3.03,1.6l-10.72,34.58C84.65,335.94,85.36,337.3,86.64,337.69z"/>
				<path fill="#1A1A1A" d="M94.72,313.19l1.62,0.5c0.84,0.26,1.73-0.21,1.99-1.05l7.01-22.63c0.26-0.84-0.21-1.73-1.05-1.99
					l-1.62-0.5c-0.84-0.26-1.73,0.21-1.99,1.05l-7.01,22.63C93.41,312.04,93.88,312.93,94.72,313.19z"/>
				<path fill="#1A1A1A" d="M100.13,296.86l1.08,0.34c0.56,0.17,1.15-0.14,1.33-0.7l4.69-15.12c0.17-0.56-0.14-1.15-0.7-1.33
					l-1.08-0.34c-0.56-0.17-1.15,0.14-1.33,0.7l-4.69,15.12C99.26,296.09,99.57,296.69,100.13,296.86z"/>
			</g>
			<g>
				<polygon fill="#080456" stroke="#CCCCCC" stroke-width="5.441" stroke-miterlimit="10" points="294.63,354.51 54.34,257.54 
					97.6,150.31 315.51,238.24 324.17,253.11 330.74,265 				"/>
				
					<line fill="none" stroke="#CCCCCC" stroke-width="2.7205" stroke-miterlimit="10" x1="144.27" y1="169.15" x2="101.52" y2="275.11"/>
				
					<line fill="none" stroke="#CCCCCC" stroke-width="2.7205" stroke-miterlimit="10" x1="194.73" y1="189.51" x2="151.98" y2="295.47"/>
				
					<line fill="none" stroke="#CCCCCC" stroke-width="2.7205" stroke-miterlimit="10" x1="245.18" y1="209.87" x2="202.43" y2="315.83"/>
				
					<line fill="none" stroke="#CCCCCC" stroke-width="2.7205" stroke-miterlimit="10" x1="295.64" y1="230.23" x2="252.89" y2="336.19"/>
			</g>
		</g>
		<path fill="#080456" d="M217.41,444.02c-8.17,0-16.38-0.46-24.62-1.4c-57.06-6.46-108.18-34.76-143.96-79.69
			C13.06,318.01-3.09,261.85,3.38,204.79C9.84,147.72,38.14,96.59,83.05,60.81c44.92-35.78,101.07-51.92,158.13-45.46
			c57.06,6.46,108.18,34.76,143.96,79.69c35.77,44.92,51.92,101.09,45.45,158.15l0,0c-6.46,57.06-34.76,108.19-79.68,143.97
			C312.49,427.78,265.82,444.02,217.41,444.02z M216.59,25.98c-45.71,0-89.76,15.33-126.05,44.23
			c-42.41,33.78-69.12,82.05-75.22,135.93C2.72,317.35,82.94,418.08,194.14,430.68c53.87,6.11,106.89-9.14,149.29-42.92
			c42.41-33.78,69.12-82.05,75.22-135.93c12.6-111.22-67.62-211.95-178.83-224.55C232.06,26.41,224.3,25.98,216.59,25.98z"/>
	</g>
</g>
<g id="Layer_2">
</g>
</svg>
